M48
;Layer_Color=9474304
;FILE_FORMAT=4:4
METRIC,LZ
;TYPE=PLATED
T1F00S00C0.7112
T2F00S00C0.8500
T3F00S00C0.9000
T4F00S00C1.2000
%
T01
X0008763Y000762
X0012192Y0009144
T02
X0007493Y0002032
Y0009652
X0010922Y0013081
X0003302
X0017145Y0010541
Y0002921
T03
X0001905Y0003556
Y0006096
Y0008636
X0012065Y0004953
Y0003683
Y0002413
X0014478Y0009906
Y0011176
Y0012446
X0027559Y0006096
Y0003556
T04
X0022098Y0001986
Y0012446
M30
