G04 Layer_Physical_Order=1*
G04 Layer_Color=255*
%FSLAX44Y44*%
%MOMM*%
G71*
G01*
G75*
%ADD10C,0.4000*%
%ADD11O,2.0000X1.0000*%
%ADD12O,2.0000X1.0000*%
%ADD13R,1.5000X1.5000*%
%ADD14C,1.5000*%
%ADD15C,1.4000*%
%ADD16C,2.0000*%
%ADD17R,2.0000X2.0000*%
%ADD18C,1.2700*%
G36*
X304800Y1270D02*
X2540D01*
Y57056D01*
X3810Y57854D01*
X5080Y57601D01*
X9574D01*
X10280Y55897D01*
X11889Y53799D01*
X13987Y52190D01*
X16429Y51178D01*
X19050Y50833D01*
X21671Y51178D01*
X24113Y52190D01*
X26211Y53799D01*
X27820Y55897D01*
X28832Y58339D01*
X29177Y60960D01*
X28832Y63581D01*
X27820Y66023D01*
X26211Y68121D01*
X24113Y69730D01*
X21671Y70742D01*
X19050Y71087D01*
X16429Y70742D01*
X13987Y69730D01*
X11889Y68121D01*
X11566Y67699D01*
X9936Y67575D01*
X9709Y67790D01*
Y79955D01*
X10979Y80386D01*
X11889Y79199D01*
X13987Y77590D01*
X16429Y76578D01*
X17780Y76401D01*
Y86360D01*
Y96319D01*
X16429Y96142D01*
X13987Y95130D01*
X11889Y93521D01*
X10979Y92334D01*
X9709Y92765D01*
Y126181D01*
X24611D01*
X24687Y125999D01*
X26216Y124006D01*
X28209Y122477D01*
X30530Y121516D01*
X33020Y121188D01*
X35510Y121516D01*
X37831Y122477D01*
X39824Y124006D01*
X41353Y125999D01*
X42314Y128320D01*
X42642Y130810D01*
X42314Y133300D01*
X41353Y135621D01*
X39824Y137614D01*
X37831Y139143D01*
X35510Y140104D01*
X33020Y140432D01*
X30530Y140104D01*
X28209Y139143D01*
X26216Y137614D01*
X24687Y135621D01*
X24611Y135439D01*
X5080D01*
X3810Y135186D01*
X2540Y135984D01*
Y153670D01*
X304800D01*
Y1270D01*
D02*
G37*
%LPC*%
G36*
X96430Y74930D02*
X88900D01*
Y67400D01*
X89951Y67539D01*
X92113Y68435D01*
X93970Y69860D01*
X95395Y71717D01*
X96291Y73879D01*
X96430Y74930D01*
D02*
G37*
G36*
X20320Y96319D02*
Y86360D01*
Y76401D01*
X21671Y76578D01*
X24113Y77590D01*
X26211Y79199D01*
X27820Y81297D01*
X28000Y81731D01*
X44901D01*
Y76200D01*
X45253Y74429D01*
X46257Y72927D01*
X47759Y71923D01*
X49530Y71571D01*
X79976D01*
X81290Y69860D01*
X83147Y68435D01*
X85309Y67539D01*
X86360Y67400D01*
Y76200D01*
Y85000D01*
X85309Y84861D01*
X83147Y83965D01*
X81290Y82540D01*
X79976Y80829D01*
X54159D01*
Y86360D01*
X53807Y88131D01*
X52803Y89633D01*
X51301Y90637D01*
X49530Y90989D01*
X28000D01*
X27820Y91423D01*
X26211Y93521D01*
X24113Y95130D01*
X21671Y96142D01*
X20320Y96319D01*
D02*
G37*
G36*
X109220Y140432D02*
X106730Y140104D01*
X104409Y139143D01*
X102416Y137614D01*
X100887Y135621D01*
X100811Y135439D01*
X74930D01*
X73159Y135087D01*
X71657Y134083D01*
X70653Y132581D01*
X70301Y130810D01*
Y104929D01*
X70119Y104853D01*
X68126Y103324D01*
X66597Y101331D01*
X65636Y99010D01*
X65308Y96520D01*
X65636Y94030D01*
X66597Y91709D01*
X68126Y89716D01*
X70119Y88187D01*
X72440Y87226D01*
X74930Y86898D01*
X77420Y87226D01*
X79741Y88187D01*
X81734Y89716D01*
X83263Y91709D01*
X84224Y94030D01*
X84552Y96520D01*
X84224Y99010D01*
X83263Y101331D01*
X81734Y103324D01*
X79741Y104853D01*
X79559Y104929D01*
Y126181D01*
X100811D01*
X100887Y125999D01*
X102416Y124006D01*
X104409Y122477D01*
X104591Y122401D01*
Y63397D01*
X104339Y63347D01*
X102837Y62343D01*
X101833Y60841D01*
X101481Y59070D01*
Y36830D01*
X101833Y35059D01*
X102837Y33557D01*
X104339Y32553D01*
X106110Y32201D01*
X109698D01*
X110272Y31452D01*
X110712Y31115D01*
Y29845D01*
X110272Y29508D01*
X109698Y28759D01*
X79486D01*
X77420Y29614D01*
X74930Y29942D01*
X72440Y29614D01*
X70119Y28653D01*
X68126Y27124D01*
X66597Y25131D01*
X66521Y24949D01*
X55429D01*
Y35560D01*
X55077Y37331D01*
X54073Y38833D01*
X52571Y39837D01*
X50800Y40189D01*
X29090D01*
Y45600D01*
X9010D01*
Y25520D01*
X29090D01*
Y30931D01*
X46171D01*
Y20320D01*
X46523Y18549D01*
X47527Y17047D01*
X49029Y16043D01*
X50800Y15691D01*
X66521D01*
X66597Y15509D01*
X68126Y13516D01*
X70119Y11987D01*
X72440Y11026D01*
X74930Y10698D01*
X77420Y11026D01*
X79741Y11987D01*
X81734Y13516D01*
X83263Y15509D01*
X84224Y17830D01*
X84445Y19501D01*
X109698D01*
X110272Y18752D01*
X111847Y17544D01*
X113682Y16784D01*
X115650Y16525D01*
X125650D01*
X127618Y16784D01*
X129452Y17544D01*
X131028Y18752D01*
X131602Y19501D01*
X138881D01*
Y17670D01*
X139233Y15899D01*
X140237Y14397D01*
X141739Y13393D01*
X143510Y13041D01*
X208440D01*
Y7320D01*
X233520D01*
Y15231D01*
X259890D01*
X259890Y15231D01*
X261661Y15583D01*
X263163Y16587D01*
X272096Y25520D01*
X285630D01*
Y45600D01*
X265550D01*
Y32066D01*
X257973Y24489D01*
X233520D01*
Y32400D01*
X208440D01*
Y22299D01*
X179773D01*
X179146Y23569D01*
X179783Y24399D01*
X180744Y26720D01*
X181072Y29210D01*
X180744Y31700D01*
X179783Y34021D01*
X178254Y36014D01*
X176261Y37543D01*
X173940Y38504D01*
X171450Y38832D01*
X168960Y38504D01*
X166639Y37543D01*
X164646Y36014D01*
X163117Y34021D01*
X163041Y33839D01*
X158299D01*
Y49530D01*
X157947Y51301D01*
X156943Y52803D01*
X155441Y53807D01*
X153670Y54159D01*
X131602D01*
X131028Y54908D01*
X129452Y56116D01*
X127618Y56876D01*
X125650Y57135D01*
X115650D01*
X114716Y57012D01*
X113667Y58155D01*
X113849Y59070D01*
Y85269D01*
X115119Y85700D01*
X115580Y85100D01*
X117437Y83675D01*
X119599Y82779D01*
X120650Y82640D01*
Y91440D01*
X121920D01*
Y92710D01*
X130719D01*
X130660Y93161D01*
X131549Y94431D01*
X133828D01*
X134402Y93682D01*
X135977Y92474D01*
X137812Y91714D01*
X139780Y91455D01*
X143510D01*
Y99060D01*
X144780D01*
Y100330D01*
X157218D01*
X157214Y100358D01*
X158340Y101133D01*
X160112Y100781D01*
X160112Y100781D01*
X163041D01*
X163117Y100599D01*
X164646Y98606D01*
X166639Y97077D01*
X168960Y96116D01*
X171450Y95788D01*
X173940Y96116D01*
X176261Y97077D01*
X178254Y98606D01*
X179783Y100599D01*
X180744Y102920D01*
X181072Y105410D01*
X180744Y107900D01*
X179783Y110221D01*
X178254Y112214D01*
X176261Y113743D01*
X173940Y114704D01*
X171450Y115032D01*
X168960Y114704D01*
X166639Y113743D01*
X164646Y112214D01*
X163186Y110311D01*
X162154Y110205D01*
X161868Y110200D01*
X160195Y111873D01*
X158693Y112877D01*
X157199Y113174D01*
X157126Y113728D01*
X156366Y115562D01*
X155158Y117138D01*
X154718Y117475D01*
Y118745D01*
X155158Y119082D01*
X155732Y119831D01*
X209324D01*
X210026Y118136D01*
X212036Y115516D01*
X214656Y113506D01*
X217706Y112243D01*
X220980Y111812D01*
X224254Y112243D01*
X225949Y112945D01*
X269074Y69819D01*
X268991Y68552D01*
X268429Y68121D01*
X266820Y66023D01*
X265808Y63581D01*
X265463Y60960D01*
X265808Y58339D01*
X266820Y55897D01*
X268429Y53799D01*
X270527Y52190D01*
X272969Y51178D01*
X275590Y50833D01*
X278211Y51178D01*
X280653Y52190D01*
X282751Y53799D01*
X284360Y55897D01*
X285372Y58339D01*
X285717Y60960D01*
X285372Y63581D01*
X284360Y66023D01*
X282751Y68121D01*
X280653Y69730D01*
X280206Y69915D01*
X279867Y71621D01*
X278863Y73123D01*
X278863Y73123D01*
X232495Y119491D01*
X233197Y121186D01*
X233628Y124460D01*
X233197Y127734D01*
X231934Y130784D01*
X229924Y133404D01*
X227304Y135414D01*
X224254Y136677D01*
X220980Y137108D01*
X217706Y136677D01*
X214656Y135414D01*
X212036Y133404D01*
X210026Y130784D01*
X209324Y129089D01*
X155732D01*
X155158Y129838D01*
X153582Y131046D01*
X151748Y131806D01*
X149780Y132065D01*
X139780D01*
X137812Y131806D01*
X135977Y131046D01*
X134402Y129838D01*
X133194Y128263D01*
X132434Y126428D01*
X132175Y124460D01*
X132434Y122492D01*
X133194Y120658D01*
X134402Y119082D01*
X134842Y118745D01*
Y117475D01*
X134402Y117138D01*
X133194Y115562D01*
X132434Y113728D01*
X132175Y111760D01*
X132434Y109792D01*
X133194Y107957D01*
X134402Y106382D01*
X134842Y106045D01*
Y104775D01*
X134402Y104438D01*
X133828Y103689D01*
X121920D01*
X120149Y103337D01*
X118647Y102333D01*
X117643Y100831D01*
X117299Y99100D01*
X115580Y97780D01*
X115119Y97180D01*
X113849Y97611D01*
Y122401D01*
X114031Y122477D01*
X116024Y124006D01*
X117553Y125999D01*
X118514Y128320D01*
X118842Y130810D01*
X118514Y133300D01*
X117553Y135621D01*
X116024Y137614D01*
X114031Y139143D01*
X111710Y140104D01*
X109220Y140432D01*
D02*
G37*
G36*
X157218Y97790D02*
X146050D01*
Y91455D01*
X149780D01*
X151748Y91714D01*
X153582Y92474D01*
X155158Y93682D01*
X156366Y95258D01*
X157126Y97092D01*
X157218Y97790D01*
D02*
G37*
G36*
X130719Y90170D02*
X123190D01*
Y82640D01*
X124241Y82779D01*
X126403Y83675D01*
X128260Y85100D01*
X129685Y86957D01*
X130581Y89119D01*
X130719Y90170D01*
D02*
G37*
G36*
X88900Y85000D02*
Y77470D01*
X96430D01*
X96291Y78521D01*
X95395Y80683D01*
X93970Y82540D01*
X92113Y83965D01*
X89951Y84861D01*
X88900Y85000D01*
D02*
G37*
%LPD*%
G36*
X149041Y29210D02*
X149393Y27439D01*
X150397Y25937D01*
X151899Y24933D01*
X153670Y24581D01*
X163041D01*
X163117Y24399D01*
X163754Y23569D01*
X163127Y22299D01*
X148139D01*
Y24130D01*
X147787Y25901D01*
X146783Y27403D01*
X145281Y28407D01*
X143510Y28759D01*
X131602D01*
X131028Y29508D01*
X130588Y29845D01*
Y31115D01*
X131028Y31452D01*
X132236Y33028D01*
X132996Y34862D01*
X133255Y36830D01*
X132996Y38798D01*
X132236Y40633D01*
X131028Y42208D01*
X130588Y42545D01*
Y43815D01*
X131028Y44152D01*
X131602Y44901D01*
X149041D01*
Y29210D01*
D02*
G37*
D10*
X121920Y99060D02*
X144780D01*
X143510Y17670D02*
X220980D01*
X74930Y24130D02*
X120650D01*
X5080Y62230D02*
X19050D01*
X5080Y130810D02*
X33020D01*
X74930D02*
X109220D01*
Y59070D02*
Y130810D01*
X50800Y20320D02*
X74930D01*
X50800D02*
Y35560D01*
X19050D02*
X50800D01*
X74930Y96520D02*
Y130810D01*
X121920Y91440D02*
Y99060D01*
X49530Y76200D02*
X87630D01*
X106110Y59070D02*
X109220D01*
X49530Y76200D02*
Y86360D01*
X19050D02*
X49530D01*
X5080Y62230D02*
Y130810D01*
X19050Y60960D02*
Y62230D01*
X74930Y20320D02*
Y24130D01*
X220980Y17670D02*
Y19860D01*
X143510Y17670D02*
Y24130D01*
X120650D02*
X143510D01*
X153670Y29210D02*
X171450D01*
X153670D02*
Y49530D01*
X120650D02*
X153670D01*
X106110Y36830D02*
X120650D01*
X106110D02*
Y59070D01*
X220980Y124460D02*
X275590Y69850D01*
Y60960D02*
Y69850D01*
X259890Y19860D02*
X275590Y35560D01*
X220980Y19860D02*
X259890D01*
X144780Y124460D02*
X220980D01*
X144780Y111760D02*
X147940Y108600D01*
X156922D01*
X160112Y105410D01*
X171450D01*
D11*
X120650Y49530D02*
D03*
Y24130D02*
D03*
X144780Y124460D02*
D03*
Y99060D02*
D03*
D12*
X120650Y36830D02*
D03*
X144780Y111760D02*
D03*
D13*
X19050Y35560D02*
D03*
X275590D02*
D03*
D14*
X19050Y60960D02*
D03*
Y86360D02*
D03*
X275590Y60960D02*
D03*
D15*
X171450Y29210D02*
D03*
Y105410D02*
D03*
X109220Y130810D02*
D03*
X33020D02*
D03*
X74930Y96520D02*
D03*
Y20320D02*
D03*
D16*
X220980Y124460D02*
D03*
D17*
Y19860D02*
D03*
D18*
X121920Y91440D02*
D03*
X87630Y76200D02*
D03*
M02*
