G04 Layer_Color=65535*
%FSLAX44Y44*%
%MOMM*%
G71*
G01*
G75*
%ADD19C,0.2500*%
%ADD20C,0.2000*%
%ADD21C,0.2540*%
%ADD22R,2.8000X0.8000*%
D19*
X135400Y8530D02*
G03*
X135400Y8530I-1250J0D01*
G01*
X159530Y83460D02*
G03*
X159530Y83460I-1250J0D01*
G01*
D20*
X135650Y56630D02*
G03*
X135650Y17030I-15000J-19800D01*
G01*
X159780Y131560D02*
G03*
X159780Y91960I-15000J-19800D01*
G01*
X135650Y17030D02*
Y56630D01*
X31750Y22860D02*
Y99060D01*
X6350D02*
X31750D01*
X6350Y22860D02*
Y99060D01*
Y22860D02*
X31750D01*
X171450Y41910D02*
X179070D01*
Y92710D01*
X163830D02*
X179070D01*
X163830Y41910D02*
Y92710D01*
Y41910D02*
X171450D01*
Y92710D02*
Y94996D01*
Y39624D02*
Y41910D01*
X206980Y98660D02*
X234980D01*
Y45660D02*
Y98660D01*
X206980Y45660D02*
Y98660D01*
X96520Y130810D02*
Y138430D01*
X45720D02*
X96520D01*
X45720Y123190D02*
Y138430D01*
Y123190D02*
X96520D01*
Y130810D01*
X43434D02*
X45720D01*
X96520D02*
X98806D01*
X159780Y91960D02*
Y131560D01*
X67310Y83820D02*
X74930D01*
X67310Y33020D02*
Y83820D01*
Y33020D02*
X82550D01*
Y83820D01*
X74930D02*
X82550D01*
X74930Y30734D02*
Y33020D01*
Y83820D02*
Y86106D01*
X262890Y73660D02*
X288290D01*
Y22860D02*
Y73660D01*
X262890Y22860D02*
X288290D01*
X262890D02*
Y73660D01*
D21*
X97787Y6349D02*
Y16506D01*
X95247Y19045D01*
X90169D01*
X87630Y16506D01*
Y6349D01*
X90169Y3810D01*
X95247D01*
X92708Y8888D02*
X97787Y3810D01*
X95247D02*
X97787Y6349D01*
X102865Y3810D02*
X107943D01*
X105404D01*
Y19045D01*
X102865Y16506D01*
X12700Y105410D02*
Y120645D01*
X20317D01*
X22857Y118106D01*
Y113027D01*
X20317Y110488D01*
X12700D01*
X38092Y105410D02*
X27935D01*
X38092Y115567D01*
Y118106D01*
X35553Y120645D01*
X30474D01*
X27935Y118106D01*
X170180Y59690D02*
Y74925D01*
X177798D01*
X180337Y72386D01*
Y67308D01*
X177798Y64768D01*
X170180D01*
X175258D02*
X180337Y59690D01*
X185415Y72386D02*
X187954Y74925D01*
X193033D01*
X195572Y72386D01*
Y69847D01*
X193033Y67308D01*
X190493D01*
X193033D01*
X195572Y64768D01*
Y62229D01*
X193033Y59690D01*
X187954D01*
X185415Y62229D01*
X212090Y86125D02*
Y70890D01*
X219708D01*
X222247Y73429D01*
Y83586D01*
X219708Y86125D01*
X212090D01*
X227325Y70890D02*
X232403D01*
X229864D01*
Y86125D01*
X227325Y83586D01*
X63500Y133350D02*
Y148585D01*
X71118D01*
X73657Y146046D01*
Y140968D01*
X71118Y138428D01*
X63500D01*
X68578D02*
X73657Y133350D01*
X78735D02*
X83813D01*
X81274D01*
Y148585D01*
X78735Y146046D01*
X140967Y72389D02*
Y82546D01*
X138427Y85085D01*
X133349D01*
X130810Y82546D01*
Y72389D01*
X133349Y69850D01*
X138427D01*
X135888Y74928D02*
X140967Y69850D01*
X138427D02*
X140967Y72389D01*
X156202Y69850D02*
X146045D01*
X156202Y80007D01*
Y82546D01*
X153663Y85085D01*
X148584D01*
X146045Y82546D01*
X40640Y48260D02*
Y63495D01*
X48257D01*
X50797Y60956D01*
Y55877D01*
X48257Y53338D01*
X40640D01*
X45718D02*
X50797Y48260D01*
X66032D02*
X55875D01*
X66032Y58417D01*
Y60956D01*
X63493Y63495D01*
X58414D01*
X55875Y60956D01*
X264541Y82169D02*
Y97404D01*
X272159D01*
X274698Y94865D01*
Y89787D01*
X272159Y87247D01*
X264541D01*
X279776Y82169D02*
X284854D01*
X282315D01*
Y97404D01*
X279776Y94865D01*
D22*
X220978Y48664D02*
D03*
M02*
